<?xml version="1.0" standalone="no"?>
<!DOCTYPE svg PUBLIC "-//W3C//DTD SVG 20010904//EN"
 "http://www.w3.org/TR/2001/REC-SVG-20010904/DTD/svg10.dtd">
<svg version="1.0" xmlns="http://www.w3.org/2000/svg"
 width="213.000000pt" height="213.000000pt" viewBox="0 0 213.000000 213.000000"
 preserveAspectRatio="xMidYMid meet">
<metadata>
Created by potrace 1.11, written by Peter Selinger 2001-2013
</metadata>
<g transform="translate(0.000000,213.000000) scale(0.100000,-0.100000)"
fill="#000000" stroke="none">
<path d="M995 2098 c-105 -9 -233 -50 -327 -105 -35 -20 -97 -70 -138 -112
-136 -138 -200 -285 -206 -471 -7 -211 58 -371 221 -544 25 -27 65 -89 90
-138 l44 -90 -20 -31 c-10 -18 -19 -45 -19 -60 0 -35 28 -85 52 -93 13 -4 16
-12 11 -34 -7 -38 1 -70 27 -97 16 -17 18 -27 11 -46 -13 -32 -4 -66 25 -97
12 -14 25 -37 29 -51 9 -37 51 -78 104 -103 68 -31 236 -29 304 3 61 30 112
90 95 114 -1 1 13 17 32 35 30 31 32 36 27 83 -3 27 -2 49 2 49 17 0 42 71 36
99 -4 20 0 32 16 47 47 43 58 109 26 158 -13 18 -12 28 7 81 17 48 38 77 108
150 105 109 119 127 161 202 64 115 88 220 83 363 -12 331 -240 596 -581 675
-37 9 -69 14 -72 11 -2 -2 -17 -1 -31 3 -15 4 -67 3 -117 -1z m208 -134 c171
-38 320 -150 405 -304 44 -80 64 -153 67 -255 7 -178 -45 -303 -188 -451 -103
-107 -136 -155 -163 -237 l-19 -57 -175 2 -175 3 0 185 0 185 95 1 c126 2 209
26 276 82 112 92 130 293 37 402 -68 79 -169 109 -348 103 -60 -2 -119 -5
-130 -7 -11 -3 -28 -5 -37 -5 -17 -1 -18 -31 -18 -476 0 -406 -2 -475 -14
-475 -9 0 -37 47 -70 113 -43 90 -70 131 -128 194 -40 44 -88 106 -105 139
-117 220 -86 483 79 669 82 91 221 170 343 195 68 13 193 11 268 -6z m-6 -462
c71 -37 103 -97 98 -183 -6 -84 -53 -142 -139 -169 -39 -13 -175 -18 -192 -7
-5 3 -9 88 -9 188 l0 184 30 5 c59 12 173 2 212 -18z"/>
<path d="M1280 1759 c-14 -26 -9 -60 10 -70 8 -4 35 -13 60 -20 65 -19 115
-74 129 -141 12 -55 23 -68 57 -68 75 0 58 143 -27 229 -41 42 -142 91 -186
91 -22 0 -36 -6 -43 -21z"/>
</g>
</svg>
